<?xml version="1.0" encoding="utf-8"?>
<!-- Generator: Adobe Illustrator 16.0.0, SVG Export Plug-In . SVG Version: 6.00 Build 0)  -->
<!DOCTYPE svg PUBLIC "-//W3C//DTD SVG 1.1//EN" "http://www.w3.org/Graphics/SVG/1.1/DTD/svg11.dtd">
<svg version="1.1" id="Layer_1" xmlns="http://www.w3.org/2000/svg" xmlns:xlink="http://www.w3.org/1999/xlink" x="0px" y="0px"
	 width="300px" height="44px" viewBox="0 0 300 44" enable-background="new 0 0 300 44" xml:space="preserve">
<g>
	<path fill="#BD3143" d="M1.108,43.963c5.553-1.603,12.658-9.793,16.775-17.601c3.271,4.673,8.041,9.486,13.209,13.022
		c9.895,6.772,24.46,4.368,20.908,2.459C36.84,33.692,24.95,13.903,18.871,11.253c0,0-0.001,0-0.002,0
		c-2.576-1.342-4.789,0.967-4.789,0.967C7.323,18.17-2.916,45.125,1.108,43.963"/>
	<path fill="#BD3143" d="M66.985,0.212c-5.552,1.602-12.659,9.793-16.775,17.601C46.939,13.14,42.168,8.327,37.002,4.79
		c-9.895-6.771-24.461-4.369-20.91-2.458c15.162,8.152,27.051,27.941,33.13,30.59c0,0.001,0.001,0.001,0.001,0.001
		c2.576,1.342,4.789-0.967,4.789-0.967l0,0C60.771,26.006,71.009-0.95,66.985,0.212"/>
	<polygon points="99.829,7.869 99.829,29.301 82.59,7.869 79.218,7.869 79.218,36.608 83.325,36.608 83.325,15.188 100.563,36.608 
		103.936,36.608 103.936,7.869 	"/>
	<polygon points="133.496,7.869 129.426,7.869 116.419,36.608 120.639,36.608 123.8,29.426 125.244,26.14 131.442,12.064 
		137.64,26.14 139.084,29.426 142.246,36.608 146.551,36.608 	"/>
	<path d="M176.909,24.412c-0.925-1.047-2.033-1.826-3.312-2.325c-1.291-0.511-2.982-1.022-5.101-1.534
		c-1.631-0.365-2.921-0.718-3.883-1.059c-0.949-0.328-1.74-0.803-2.386-1.412c-0.645-0.596-0.961-1.375-0.961-2.336
		c0-1.315,0.571-2.386,1.704-3.214c1.144-0.828,2.848-1.254,5.124-1.254c1.278,0,2.593,0.195,3.932,0.584s2.593,0.961,3.773,1.704
		l1.326-3.202c-1.154-0.815-2.53-1.424-4.138-1.85c-1.607-0.426-3.238-0.646-4.894-0.646c-2.386,0-4.383,0.365-5.989,1.084
		c-1.606,0.718-2.8,1.692-3.591,2.897c-0.79,1.205-1.181,2.556-1.181,4.054c0,1.789,0.463,3.213,1.388,4.272
		c0.913,1.059,2.033,1.838,3.323,2.35c1.303,0.511,3.008,1.022,5.125,1.521c1.68,0.401,2.994,0.767,3.919,1.083
		c0.913,0.329,1.692,0.791,2.325,1.388c0.633,0.608,0.938,1.388,0.938,2.35c0,1.314-0.572,2.361-1.717,3.152
		c-1.156,0.792-2.896,1.181-5.223,1.181c-1.764,0-3.492-0.292-5.16-0.9c-1.68-0.597-3.043-1.388-4.113-2.35l-1.485,3.141
		c1.12,1.035,2.666,1.887,4.637,2.544c1.96,0.658,4.005,0.986,6.122,0.986c2.374,0,4.384-0.354,6.015-1.059
		c1.643-0.718,2.859-1.681,3.663-2.897c0.804-1.218,1.205-2.568,1.205-4.042C178.295,26.859,177.833,25.458,176.909,24.412"/>
	<polygon points="229.445,7.869 221.517,31.356 213.6,7.869 209.818,7.869 201.74,31.231 193.973,7.869 189.741,7.869 
		199.349,36.608 203.743,36.608 211.584,13.657 219.426,36.608 223.745,36.608 233.353,7.869 	"/>
	<rect x="246.559" y="7.869" width="4.106" height="28.739"/>
	<polygon points="270.455,33.047 288.441,10.67 288.441,7.869 265.241,7.869 265.241,11.442 283.027,11.442 264.956,33.82 
		264.956,36.608 288.441,36.608 288.441,33.047 	"/>
	<polygon points="293.166,0.596 291.912,0.596 291.912,0 295.125,0 295.125,0.596 293.869,0.596 293.869,3.789 293.166,3.789 	"/>
	<polygon points="299.135,3.788 299.13,1.277 297.885,3.355 297.57,3.355 296.327,1.31 296.327,3.788 295.656,3.788 295.656,0 
		296.235,0 297.739,2.512 299.216,0 299.795,0 299.801,3.788 	"/>
</g>
</svg>
