<svg id="Layer_3" enable-background="new 0 0 64 64" height="512" viewBox="0 0 64 64" width="512" xmlns="http://www.w3.org/2000/svg" fill="#d84757"><g><path d="m16 37h10c.552 0 1-.447 1-1v-1h2.764l3.789 1.895c.138.069.292.105.447.105h12c1.654 0 3-1.346 3-3 0-.771-.301-1.468-.78-2 .48-.532.78-1.229.78-2s-.301-1.468-.78-2c.48-.532.78-1.229.78-2s-.301-1.468-.78-2c.48-.532.78-1.229.78-2 0-1.654-1.346-3-3-3h-7v-6c0-2.206-1.794-4-4-4h-1c-.552 0-1 .447-1 1v5.586l-3.414 3.414h-2.586v-1c0-.553-.448-1-1-1h-10c-.552 0-1 .447-1 1v18c0 .553.448 1 1 1zm14-16c.265 0 .52-.105.707-.293l4-4c.188-.187.293-.441.293-.707v-5c1.103 0 2 .897 2 2v7c0 .553.448 1 1 1h8c.551 0 1 .448 1 1s-.449 1-1 1h-7v2h7c.551 0 1 .448 1 1s-.449 1-1 1h-7v2h7c.551 0 1 .448 1 1s-.449 1-1 1h-7v2h7c.551 0 1 .448 1 1s-.449 1-1 1h-11.764l-3.789-1.895c-.138-.069-.292-.105-.447-.105h-3v-12zm-13-2h8v16h-8z"/><path d="m32 46c1.103 0 2 .897 2 2h2c0-1.859-1.28-3.411-3-3.858v-2.142h-2v2.142c-1.72.447-3 1.999-3 3.858 0 2.206 1.794 4 4 4 1.103 0 2 .897 2 2s-.897 2-2 2-2-.897-2-2h-2c0 1.859 1.28 3.411 3 3.858v2.142h2v-2.142c1.72-.447 3-1.999 3-3.858 0-2.206-1.794-4-4-4-1.103 0-2-.897-2-2s.897-2 2-2z"/><path d="m51 46c1.103 0 2 .897 2 2h2c0-1.859-1.28-3.411-3-3.858v-2.142h-2v2.142c-1.72.447-3 1.999-3 3.858 0 2.206 1.794 4 4 4 1.103 0 2 .897 2 2s-.897 2-2 2-2-.897-2-2h-2c0 1.859 1.28 3.411 3 3.858v2.142h2v-2.142c1.72-.447 3-1.999 3-3.858 0-2.206-1.794-4-4-4-1.103 0-2-.897-2-2s.897-2 2-2z"/><path d="m51 39c-3.735 0-7.254 1.765-9.509 4.685-2.196-2.843-5.629-4.685-9.491-4.685-3.863 0-7.295 1.842-9.492 4.685-2.255-2.92-5.774-4.685-9.508-4.685-6.617 0-12 5.383-12 12s5.383 12 12 12c3.734 0 7.253-1.765 9.508-4.686 2.197 2.844 5.629 4.686 9.492 4.686 3.865 0 7.3-1.845 9.496-4.692 2.253 2.926 5.746 4.692 9.504 4.692 6.617 0 12-5.383 12-12s-5.383-12-12-12zm-38 22c-5.514 0-10-4.486-10-10s4.486-10 10-10c3.359 0 6.497 1.726 8.339 4.516-.85 1.646-1.339 3.507-1.339 5.484 0 1.976.489 3.838 1.338 5.483-1.841 2.791-4.979 4.517-8.338 4.517zm19 0c-5.514 0-10-4.486-10-10s4.486-10 10-10 10 4.486 10 10-4.486 10-10 10zm19 0c-3.381 0-6.496-1.721-8.338-4.517.849-1.646 1.338-3.507 1.338-5.483s-.489-3.838-1.339-5.484c1.842-2.79 4.979-4.516 8.339-4.516 5.514 0 10 4.486 10 10s-4.486 10-10 10z"/><path d="m13 46c1.103 0 2 .897 2 2h2c0-1.859-1.28-3.411-3-3.858v-2.142h-2v2.142c-1.72.447-3 1.999-3 3.858 0 2.206 1.794 4 4 4 1.103 0 2 .897 2 2s-.897 2-2 2-2-.897-2-2h-2c0 1.859 1.28 3.411 3 3.858v2.142h2v-2.142c1.72-.447 3-1.999 3-3.858 0-2.206-1.794-4-4-4-1.103 0-2-.897-2-2s.897-2 2-2z"/><path d="m34 1h2v5h-2z"/><path d="m38.172 4h5.657v2h-5.657z" transform="matrix(.707 -.707 .707 .707 8.473 30.456)"/><path d="m28 2.172h2v5.657h-2z" transform="matrix(.707 -.707 .707 .707 4.958 21.971)"/></g></svg>